<svg width="1584" height="396" viewBox="0 0 1584 396" fill="none" xmlns="http://www.w3.org/2000/svg">
<rect width="1584" height="396" fill="#F5F5F5"/>
<g id="Awesome banner" clip-path="url(#clip0_0_1)">
<rect width="1584" height="396" fill="url(#paint0_linear_0_1)"/>
<ellipse id="Ellipse 2" cx="323" cy="64" rx="285" ry="288" fill="url(#paint1_linear_0_1)" fill-opacity="0.1"/>
<g id="copyright">
<path d="M75.95 334.52L72.30 334.52L72.30 311.16L77.20 311.16L83.70 330.04Q83.60 329.02 83.50 327.62Q83.41 326.23 83.33 324.79Q83.25 323.35 83.25 322.23L83.25 311.16L86.90 311.16L86.90 334.52L82 334.52L75.57 315.64Q75.63 316.57 75.73 317.88Q75.82 319.19 75.89 320.57Q75.95 321.94 75.95 323.10L75.95 334.52M98.80 334.84Q96.46 334.84 94.67 333.96Q92.88 333.08 91.89 331.53Q90.90 329.98 90.90 327.93Q90.90 325.78 92.13 324.18Q93.36 322.58 95.34 322.17L95.34 322.10Q93.65 321.75 92.61 320.38Q91.57 319 91.57 317.11Q91.57 315.26 92.48 313.85Q93.39 312.44 95.02 311.64Q96.66 310.84 98.80 310.84Q100.94 310.84 102.59 311.64Q104.24 312.44 105.15 313.85Q106.06 315.26 106.06 317.11Q106.06 319 105.01 320.38Q103.95 321.75 102.26 322.10L102.26 322.17Q104.24 322.58 105.47 324.18Q106.70 325.78 106.70 327.93Q106.70 329.98 105.71 331.53Q104.72 333.08 102.93 333.96Q101.14 334.84 98.80 334.84M98.80 320.73Q100.30 320.73 101.23 319.82Q102.16 318.90 102.16 317.46Q102.16 315.99 101.23 315.08Q100.30 314.17 98.80 314.17Q97.30 314.17 96.37 315.08Q95.44 315.99 95.44 317.46Q95.44 318.90 96.37 319.82Q97.30 320.73 98.80 320.73M98.80 331.45Q100.56 331.45 101.68 330.42Q102.80 329.40 102.80 327.74Q102.80 326.04 101.68 325Q100.56 323.96 98.80 323.96Q97.04 323.96 95.92 325Q94.80 326.04 94.80 327.74Q94.80 329.40 95.92 330.42Q97.04 331.45 98.80 331.45M114.35 334.52L110.70 334.52L110.70 311.16L115.60 311.16L122.10 330.04Q122 329.02 121.90 327.62Q121.81 326.23 121.73 324.79Q121.65 323.35 121.65 322.23L121.65 311.16L125.30 311.16L125.30 334.52L120.40 334.52L113.97 315.64Q114.03 316.57 114.13 317.88Q114.22 319.19 114.29 320.57Q114.35 321.94 114.35 323.10" fill="white" fill-opacity="0.9"/>
<path d="M161.48 325.24L151.24 325.24L151.24 322.68L161.48 322.68" fill="white" fill-opacity="0.9"/>
<path d="M195.02 334.84Q191.82 334.84 189.96 333.05Q188.11 331.26 188.11 328.12L188.11 317.56Q188.11 314.42 189.96 312.63Q191.82 310.84 195.02 310.84Q198.15 310.84 200.01 312.65Q201.87 314.46 201.87 317.56L198.99 317.56Q198.99 315.58 197.95 314.50Q196.91 313.43 195.02 313.43Q193.13 313.43 192.06 314.50Q190.99 315.58 190.99 317.56L190.99 328.12Q190.99 330.10 192.06 331.18Q193.13 332.25 195.02 332.25Q196.91 332.25 197.95 331.18Q198.99 330.10 198.99 328.12L201.87 328.12Q201.87 331.22 200.01 333.03Q198.15 334.84 195.02 334.84" fill="white" fill-opacity="0.9"/>
<path d="M213.96 334.84Q210.83 334.84 209 333.02Q207.18 331.19 207.18 327.80L207.18 317.88Q207.18 314.49 209 312.66Q210.83 310.84 213.96 310.84Q217.10 310.84 218.92 312.66Q220.75 314.49 220.75 317.85L220.75 327.80Q220.75 331.19 218.92 333.02Q217.10 334.84 213.96 334.84M213.96 332.25Q215.85 332.25 216.86 331.18Q217.87 330.10 217.87 328.12L217.87 317.56Q217.87 315.58 216.86 314.50Q215.85 313.43 213.96 313.43Q212.11 313.43 211.08 314.50Q210.06 315.58 210.06 317.56L210.06 328.12Q210.06 330.10 211.08 331.18Q212.11 332.25 213.96 332.25" fill="white" fill-opacity="0.9"/>
<path d="M228.65 334.52L225.87 334.52L225.87 311.16L230.12 311.16L233.10 321.27L236.20 311.16L240.46 311.16L240.46 334.52L237.67 334.52L237.67 323.48Q237.67 321.91 237.72 319.88Q237.77 317.85 237.87 315.77Q237.96 313.69 238.09 312.02L234.31 324.09L231.82 324.09L228.20 312.31Q228.46 314.68 228.55 317.50Q228.65 320.31 228.65 323.48" fill="white" fill-opacity="0.9"/>
<path d="M247.85 334.52L245.07 334.52L245.07 311.16L249.32 311.16L252.30 321.27L255.40 311.16L259.66 311.16L259.66 334.52L256.87 334.52L256.87 323.48Q256.87 321.91 256.92 319.88Q256.97 317.85 257.07 315.77Q257.16 313.69 257.29 312.02L253.51 324.09L251.02 324.09L247.40 312.31Q247.66 314.68 247.75 317.50Q247.85 320.31 247.85 323.48" fill="white" fill-opacity="0.9"/>
<path d="M271.56 334.84Q268.30 334.84 266.57 333.03Q264.84 331.22 264.84 328.12L264.84 311.16L267.72 311.16L267.72 328.12Q267.72 330.04 268.67 331.16Q269.61 332.28 271.56 332.28Q273.48 332.28 274.44 331.16Q275.40 330.04 275.40 328.12L275.40 311.16L278.28 311.16L278.28 328.12Q278.28 331.26 276.57 333.05Q274.86 334.84 271.56 334.84" fill="white" fill-opacity="0.9"/>
<path d="M286.83 334.52L284.04 334.52L284.04 311.16L287.88 311.16L295.02 331.16Q294.95 330.36 294.87 329.19Q294.79 328.02 294.75 326.73Q294.70 325.43 294.70 324.28L294.70 311.16L297.48 311.16L297.48 334.52L293.64 334.52L286.54 314.52Q286.60 315.29 286.67 316.46Q286.73 317.62 286.78 318.92Q286.83 320.22 286.83 321.40" fill="white" fill-opacity="0.9"/>
<path d="M316.20 334.52L303.72 334.52L303.72 331.90L308.49 331.90L308.49 313.78L303.72 313.78L303.72 311.16L316.20 311.16L316.20 313.78L311.43 313.78L311.43 331.90L316.20 331.90" fill="white" fill-opacity="0.9"/>
<path d="M330.60 334.52L327.72 334.52L327.72 313.78L321.32 313.78L321.32 311.16L337 311.16L337 313.78L330.60 313.78" fill="white" fill-opacity="0.9"/>
<path d="M349.80 334.52L346.92 334.52L346.92 325.78L339.88 311.16L342.95 311.16L347.50 320.76Q347.88 321.56 348.11 322.12Q348.33 322.68 348.39 322.94Q348.46 322.68 348.70 322.12Q348.94 321.56 349.32 320.76L353.87 311.16L356.84 311.16L349.80 325.78" fill="white" fill-opacity="0.9"/>
<path d="M382.83 334.52L380.04 334.52L380.04 311.16L383.88 311.16L391.02 331.16Q390.95 330.36 390.87 329.19Q390.79 328.02 390.75 326.73Q390.70 325.43 390.70 324.28L390.70 311.16L393.48 311.16L393.48 334.52L389.64 334.52L382.54 314.52Q382.60 315.29 382.67 316.46Q382.73 317.62 382.78 318.92Q382.83 320.22 382.83 321.40" fill="white" fill-opacity="0.9"/>
<path d="M405.96 334.84Q402.83 334.84 401 333.02Q399.18 331.19 399.18 327.80L399.18 317.88Q399.18 314.49 401 312.66Q402.83 310.84 405.96 310.84Q409.10 310.84 410.92 312.66Q412.75 314.49 412.75 317.85L412.75 327.80Q412.75 331.19 410.92 333.02Q409.10 334.84 405.96 334.84M405.96 332.25Q407.85 332.25 408.86 331.18Q409.87 330.10 409.87 328.12L409.87 317.56Q409.87 315.58 408.86 314.50Q407.85 313.43 405.96 313.43Q404.11 313.43 403.08 314.50Q402.06 315.58 402.06 317.56L402.06 328.12Q402.06 330.10 403.08 331.18Q404.11 332.25 405.96 332.25" fill="white" fill-opacity="0.9"/>
<path d="M424.55 334.52L418.51 334.52L418.51 311.16L424.55 311.16Q426.83 311.16 428.47 312.02Q430.12 312.89 431.03 314.46Q431.95 316.02 431.95 318.17L431.95 327.48Q431.95 329.62 431.03 331.21Q430.12 332.79 428.47 333.66Q426.83 334.52 424.55 334.52M421.39 313.72L421.39 331.96L424.55 331.96Q426.67 331.96 427.87 330.78Q429.07 329.59 429.07 327.48L429.07 318.17Q429.07 316.09 427.87 314.90Q426.67 313.72 424.55 313.72" fill="white" fill-opacity="0.9"/>
<path d="M451.40 334.52L437.96 334.52L437.96 311.16L451.40 311.16L451.40 313.78L440.81 313.78L440.81 321.02L450.28 321.02L450.28 323.58L440.81 323.58L440.81 331.90L451.40 331.90" fill="white" fill-opacity="0.9"/>
<path d="M463.69 334.84Q460.30 334.84 458.28 333.05Q456.27 331.26 456.27 328.12L459.15 328.12Q459.15 330.07 460.39 331.18Q461.64 332.28 463.69 332.28Q465.67 332.28 466.86 331.13Q468.04 329.98 468.04 328.12Q468.04 326.71 467.29 325.67Q466.54 324.63 465.13 324.25L461.58 323.26Q459.37 322.62 458.11 320.97Q456.84 319.32 456.84 317.08Q456.84 315.22 457.67 313.82Q458.51 312.41 460.01 311.62Q461.51 310.84 463.47 310.84Q465.45 310.84 466.97 311.62Q468.49 312.41 469.35 313.80Q470.22 315.19 470.22 317.02L467.34 317.02Q467.34 315.42 466.25 314.41Q465.16 313.40 463.47 313.40Q461.77 313.40 460.71 314.41Q459.66 315.42 459.66 317.02Q459.66 318.30 460.35 319.21Q461.03 320.12 462.28 320.47L465.93 321.50Q468.27 322.14 469.56 323.91Q470.86 325.69 470.86 328.12Q470.86 331.19 468.91 333.02Q466.95 334.84 463.69 334.84" fill="white" fill-opacity="0.9"/>
</g>
<path d="M73.41 197.64L71.20 197.64L75.76 180.12L78.66 180.12L83.20 197.64L81.02 197.64L79.86 192.98L74.56 192.98L73.41 197.64M76.34 185.74L74.99 191.16L79.41 191.16L78.06 185.76Q77.68 184.22 77.46 183.19Q77.25 182.16 77.20 181.85Q77.15 182.16 76.94 183.19Q76.72 184.22 76.34 185.74" fill="white" fill-opacity="0.7"/>
<path d="M88.77 197.64L86.61 197.64L86.61 180.12L92.25 180.12Q94.70 180.12 96.15 181.52Q97.60 182.93 97.60 185.28Q97.60 187.63 96.15 189.04Q94.70 190.44 92.25 190.44L88.77 190.44L88.77 197.64M88.77 182.06L88.77 188.50L92.25 188.50Q93.66 188.50 94.52 187.62Q95.37 186.74 95.37 185.28Q95.37 183.79 94.52 182.93Q93.66 182.06 92.25 182.06" fill="white" fill-opacity="0.7"/>
<path d="M110.68 197.64L101.32 197.64L101.32 195.67L104.90 195.67L104.90 182.09L101.32 182.09L101.32 180.12L110.68 180.12L110.68 182.09L107.10 182.09L107.10 195.67L110.68 195.67" fill="white" fill-opacity="0.7"/>
<path d="M134.92 197.64L132.76 197.64L132.76 188.21L128.92 188.21L128.92 186.24L132.76 186.24L132.76 183.48Q132.76 181.92 133.74 181.02Q134.73 180.12 136.46 180.12L140.32 180.12L140.32 182.09L136.46 182.09Q134.92 182.09 134.92 183.48L134.92 186.24L140.32 186.24L140.32 188.21L134.92 188.21" fill="white" fill-opacity="0.7"/>
<path d="M149.20 197.83Q146.82 197.83 145.42 196.44Q144.02 195.05 144.02 192.55L144.02 189.53Q144.02 187.01 145.41 185.63Q146.80 184.25 149.20 184.25Q151.60 184.25 152.99 185.63Q154.38 187.01 154.38 189.53L154.38 192.55Q154.38 195.05 152.98 196.44Q151.58 197.83 149.20 197.83M149.20 195.91Q150.62 195.91 151.42 195.12Q152.22 194.33 152.22 192.79L152.22 189.29Q152.22 187.75 151.42 186.96Q150.62 186.17 149.20 186.17Q147.81 186.17 146.99 186.96Q146.18 187.75 146.18 189.29L146.18 192.79Q146.18 194.33 146.99 195.12Q147.81 195.91 149.20 195.91" fill="white" fill-opacity="0.7"/>
<path d="M161.25 197.64L159.09 197.64L159.09 184.44L161.25 184.44L161.25 186.96L161.30 186.96Q161.46 185.69 162.38 184.94Q163.29 184.20 164.82 184.20Q166.89 184.20 168 185.44Q169.12 186.67 169.12 188.95L169.12 190.08L166.96 190.08L166.96 188.95Q166.96 186.07 164.15 186.07Q162.74 186.07 161.99 186.89Q161.25 187.70 161.25 189.24" fill="white" fill-opacity="0.7"/>
<path d="M198.52 197.64L187.24 197.64L187.24 195.67L191.92 195.67L191.92 186.41L187.72 186.41L187.72 184.44L194.08 184.44L194.08 195.67L198.52 195.67L198.52 197.64M192.76 182.06Q191.97 182.06 191.51 181.66Q191.06 181.25 191.06 180.55Q191.06 179.83 191.51 179.41Q191.97 178.99 192.76 178.99Q193.55 178.99 194.01 179.41Q194.46 179.83 194.46 180.55Q194.46 181.25 194.01 181.66Q193.55 182.06 192.76 182.06" fill="white" fill-opacity="0.7"/>
<path d="M207.33 197.83L206.27 197.83Q204.06 197.83 202.85 196.84Q201.64 195.84 201.64 194.02L203.80 194.02Q203.80 194.93 204.45 195.44Q205.10 195.96 206.27 195.96L207.33 195.96Q208.53 195.96 209.19 195.43Q209.85 194.90 209.85 193.94Q209.85 192.24 208.29 192.02L204.64 191.50Q203.30 191.30 202.55 190.38Q201.81 189.46 201.81 187.94Q201.81 186.22 203 185.23Q204.18 184.25 206.27 184.25L207.33 184.25Q209.25 184.25 210.46 185.20Q211.67 186.14 211.77 187.68L209.58 187.68Q209.54 186.98 208.92 186.53Q208.31 186.07 207.33 186.07L206.27 186.07Q205.17 186.07 204.54 186.58Q203.92 187.08 203.92 187.94Q203.92 189.34 205.19 189.53L208.60 190.01Q211.96 190.49 211.96 193.94Q211.96 195.79 210.75 196.81Q209.54 197.83 207.33 197.83" fill="white" fill-opacity="0.7"/>
<path d="M221.73 197.83L220.67 197.83Q218.46 197.83 217.25 196.84Q216.04 195.84 216.04 194.02L218.20 194.02Q218.20 194.93 218.85 195.44Q219.50 195.96 220.67 195.96L221.73 195.96Q222.93 195.96 223.59 195.43Q224.25 194.90 224.25 193.94Q224.25 192.24 222.69 192.02L219.04 191.50Q217.70 191.30 216.95 190.38Q216.21 189.46 216.21 187.94Q216.21 186.22 217.40 185.23Q218.58 184.25 220.67 184.25L221.73 184.25Q223.65 184.25 224.86 185.20Q226.07 186.14 226.17 187.68L223.98 187.68Q223.94 186.98 223.32 186.53Q222.71 186.07 221.73 186.07L220.67 186.07Q219.57 186.07 218.94 186.58Q218.32 187.08 218.32 187.94Q218.32 189.34 219.59 189.53LNaN 190.01Q226.36 190.49 226.36 193.94Q226.36 195.79 225.15 196.81Q223.94 197.83 221.73 197.83" fill="white" fill-opacity="0.7"/>
<path d="M235.58 197.88Q233.30 197.88 231.93 196.52Q230.56 195.17 230.56 192.84L230.56 184.44L232.72 184.44L232.72 192.84Q232.72 194.28 233.49 195.13Q234.26 195.98 235.58 195.98Q236.92 195.98 237.70 195.13Q238.48 194.28 238.48 192.84L238.48 184.44L240.64 184.44L240.64 192.84Q240.64 195.17 239.25 196.52Q237.86 197.88 235.58 197.88" fill="white" fill-opacity="0.7"/>
<path d="MNaN 197.88Q247.67 197.88 246.24 196.48Q244.82 195.07 244.82 192.60L244.82 189.48Q244.82 187.01 246.24 185.60Q247.67 184.20 NaN 184.20Q251.56 184.20 252.72 184.82Q253.89 185.45 254.54 186.58Q255.18 187.70 255.18 189.24L255.18 191.59L246.93 191.59L246.93 192.84Q246.93 194.30 247.77 195.16Q248.61 196.01 NaN 196.01Q251.20 196.01 251.98 195.54Q252.76 195.07 252.93 194.28L255.09 194.28Q254.87 195.94 253.48 196.91Q252.09 197.88 NaN 197.88M246.93 189.24L246.93 189.91L253.07 189.91L253.07 189.24Q253.07 187.68 252.27 186.83Q251.46 185.98 NaN 185.98Q248.54 185.98 247.73 186.83Q246.93 187.68 246.93 189.24" fill="white" fill-opacity="0.7"/>
<path d="M262.05 197.64L259.89 197.64L259.89 184.44L262.05 184.44L262.05 186.96L262.10 186.96Q262.26 185.69 263.18 184.94Q264.09 184.20 265.62 184.20Q267.69 184.20 268.80 185.44Q269.92 186.67 269.92 188.95L269.92 190.08L267.76 190.08L267.76 188.95Q267.76 186.07 264.95 186.07Q263.54 186.07 262.79 186.89Q262.05 187.70 262.05 189.24" fill="white" fill-opacity="0.7"/>
<path d="M279.33 197.83L278.27 197.83Q276.06 197.83 274.85 196.84Q273.64 195.84 273.64 194.02L275.80 194.02Q275.80 194.93 276.45 195.44Q277.10 195.96 278.27 195.96L279.33 195.96Q280.53 195.96 281.19 195.43Q281.85 194.90 281.85 193.94Q281.85 192.24 280.29 192.02L276.64 191.50Q275.30 191.30 274.55 190.38Q273.81 189.46 273.81 187.94Q273.81 186.22 275 185.23Q276.18 184.25 278.27 184.25L279.33 184.25Q281.25 184.25 282.46 185.20Q283.67 186.14 283.77 187.68L281.58 187.68Q281.54 186.98 280.92 186.53Q280.31 186.07 279.33 186.07L278.27 186.07Q277.17 186.07 276.54 186.58Q275.92 187.08 275.92 187.94Q275.92 189.34 277.19 189.53L280.60 190.01Q283.96 190.49 283.96 193.94Q283.96 195.79 282.75 196.81Q281.54 197.83 279.33 197.83" fill="white" fill-opacity="0.7"/>
<path d="M312.76 197.64L308.92 197.64Q307.29 197.64 306.30 196.69Q305.32 195.74 305.32 194.16L305.32 186.41L301.53 186.41L301.53 184.44L305.32 184.44L305.32 180.72L307.48 180.72L307.48 184.44L312.88 184.44L312.88 186.41L307.48 186.41L307.48 194.16Q307.48 194.83 307.88 195.25Q308.27 195.67 308.92 195.67L312.76 195.67" fill="white" fill-opacity="0.7"/>
<path d="M322 197.83Q319.62 197.83 318.22 196.44Q316.82 195.05 316.82 192.55L316.82 189.53Q316.82 187.01 318.21 185.63Q319.60 184.25 322 184.25Q324.40 184.25 325.79 185.63Q327.18 187.01 327.18 189.53L327.18 192.55Q327.18 195.05 325.78 196.44Q324.38 197.83 322 197.83M322 195.91Q323.42 195.91 324.22 195.12Q325.02 194.33 325.02 192.79L325.02 189.29Q325.02 187.75 324.22 186.96Q323.42 186.17 322 186.17Q320.61 186.17 319.79 186.96Q318.98 187.75 318.98 189.29L318.98 192.79Q318.98 194.33 319.79 195.12Q320.61 195.91 322 195.91" fill="white" fill-opacity="0.7"/>
<path d="M351.33 197.83L350.27 197.83Q348.06 197.83 346.85 196.84Q345.64 195.84 345.64 194.02L347.80 194.02Q347.80 194.93 348.45 195.44Q349.10 195.96 350.27 195.96L351.33 195.96Q352.53 195.96 353.19 195.43Q353.85 194.90 353.85 193.94Q353.85 192.24 352.29 192.02L348.64 191.50Q347.30 191.30 346.55 190.38Q345.81 189.46 345.81 187.94Q345.81 186.22 347 185.23Q348.18 184.25 350.27 184.25L351.33 184.25Q353.25 184.25 354.46 185.20Q355.67 186.14 355.77 187.68L353.58 187.68Q353.54 186.98 352.92 186.53Q352.31 186.07 351.33 186.07L350.27 186.07Q349.17 186.07 348.54 186.58Q347.92 187.08 347.92 187.94Q347.92 189.34 349.19 189.53L352.60 190.01Q355.96 190.49 355.96 193.94Q355.96 195.79 354.75 196.81Q353.54 197.83 351.33 197.83" fill="white" fill-opacity="0.7"/>
<path d="M364.05 197.88Q362.01 197.88 360.81 196.74Q359.61 195.60 359.61 193.75Q359.61 192.53 360.16 191.62Q360.71 190.70 361.70 190.19Q362.68 189.67 363.95 189.67L368.03 189.67L368.03 188.64Q368.03 186.07 365.22 186.07Q363.98 186.07 363.21 186.53Q362.44 186.98 362.39 187.80L360.23 187.80Q360.35 186.24 361.68 185.22Q363.02 184.20 365.22 184.20Q367.62 184.20 368.91 185.35Q370.19 186.50 370.19 188.57L370.19 197.64L368.06 197.64L368.06 195.24L368.01 195.24Q367.82 196.46 366.78 197.17Q365.75 197.88 364.05 197.88M364.58 196.06Q366.16 196.06 367.10 195.29Q368.03 194.52 368.03 193.20L368.03 191.35L364.19 191.35Q363.14 191.35 362.48 191.99Q361.82 192.62 361.82 193.68Q361.82 194.78 362.55 195.42Q363.28 196.06 364.58 196.06" fill="white" fill-opacity="0.7"/>
<path d="M381.02 197.64L378.18 197.64L373.70 184.44L376.02 184.44L378.90 193.32Q379.17 194.11 379.36 194.84Q379.55 195.58 379.65 195.98Q379.77 195.58 379.94 194.84Q380.10 194.11 380.34 193.32L383.22 184.44L385.50 184.44" fill="white" fill-opacity="0.7"/>
<path d="M394 197.88Q391.67 197.88 390.24 196.48Q388.82 195.07 388.82 192.60L388.82 189.48Q388.82 187.01 390.24 185.60Q391.67 184.20 394 184.20Q395.56 184.20 396.72 184.82Q397.89 185.45 398.54 186.58Q399.18 187.70 399.18 189.24L399.18 191.59L390.93 191.59L390.93 192.84Q390.93 194.30 391.77 195.16Q392.61 196.01 394 196.01Q395.20 196.01 395.98 195.54Q396.76 195.07 396.93 194.28L399.09 194.28Q398.87 195.94 397.48 196.91Q396.09 197.88 394 197.88M390.93 189.24L390.93 189.91L397.07 189.91L397.07 189.24Q397.07 187.68 396.27 186.83Q395.46 185.98 394 185.98Q392.54 185.98 391.73 186.83Q390.93 187.68 390.93 189.24" fill="white" fill-opacity="0.7"/>
<path d="M421.65 197.88Q419.61 197.88 418.41 196.74Q417.21 195.60 417.21 193.75Q417.21 192.53 417.76 191.62Q418.31 190.70 419.30 190.19Q420.28 189.67 421.55 189.67L425.63 189.67L425.63 188.64Q425.63 186.07 422.82 186.07Q421.58 186.07 420.81 186.53Q420.04 186.98 419.99 187.80L417.83 187.80Q417.95 186.24 419.28 185.22Q420.62 184.20 422.82 184.20Q425.22 184.20 426.51 185.35Q427.79 186.50 427.79 188.57L427.79 197.64L425.66 197.64L425.66 195.24L425.61 195.24Q425.42 196.46 424.38 197.17Q423.35 197.88 421.65 197.88M422.18 196.06Q423.76 196.06 424.70 195.29Q425.63 194.52 425.63 193.20L425.63 191.35L421.79 191.35Q420.74 191.35 420.08 191.99Q419.42 192.62 419.42 193.68Q419.42 194.78 420.15 195.42Q420.88 196.06 422.18 196.06" fill="white" fill-opacity="0.7"/>
<path d="M434.37 197.64L432.21 197.64L432.21 184.44L434.37 184.44L434.37 186.96L434.39 186.96Q434.56 185.64 435.47 184.92Q436.38 184.20 437.90 184.20Q439.89 184.20 441.06 185.42Q442.24 186.65 442.24 188.76L442.24 197.64L440.08 197.64L440.08 189.14Q440.08 187.63 439.32 186.83Q438.57 186.02 437.27 186.02Q435.93 186.02 435.15 186.86Q434.37 187.70 434.37 189.24" fill="white" fill-opacity="0.7"/>
<path d="M450.83 197.88Q448.86 197.88 447.68 196.56Q446.49 195.24 446.49 192.98L446.49 189.12Q446.49 186.84 447.66 185.52Q448.84 184.20 450.83 184.20Q452.32 184.20 453.29 184.94Q454.26 185.69 454.46 186.96L454.48 186.96L454.43 183.96L454.43 180.12L456.59 180.12L456.59 197.64L454.43 197.64L454.43 195.12L454.41 195.12Q454.24 196.42 453.28 197.15Q452.32 197.88 450.83 197.88M451.55 196.01Q452.90 196.01 453.66 195.17Q454.43 194.33 454.43 192.84L454.43 189.24Q454.43 187.75 453.66 186.91Q452.90 186.07 451.55 186.07Q450.18 186.07 449.42 186.78Q448.65 187.49 448.65 189.12L448.65 192.96Q448.65 194.57 449.42 195.29Q450.18 196.01 451.55 196.01" fill="white" fill-opacity="0.7"/>
<path d="M476.66 197.64L474.64 197.64L474.64 184.44L476.51 184.44L476.51 186.19L476.56 186.19Q476.68 185.30 477.27 184.75Q477.86 184.20 478.77 184.20Q479.63 184.20 480.23 184.70Q480.83 185.21 481.10 186.07L481.12 186.07Q481.29 185.21 481.88 184.70Q482.46 184.20 483.38 184.20Q484.65 184.20 485.40 185.15Q486.16 186.10 486.16 187.61L486.16 197.64L484.14 197.64L484.14 187.58Q484.14 186.79 483.76 186.32Q483.38 185.86 482.70 185.86Q482.06 185.86 481.67 186.31Q481.29 186.77 481.29 187.56L481.29 197.64L479.51 197.64L479.51 187.58Q479.51 186.79 479.13 186.32Q478.74 185.86 478.10 185.86Q477.42 185.86 477.04 186.31Q476.66 186.77 476.66 187.56" fill="white" fill-opacity="0.7"/>
<path d="M493.65 197.88Q491.61 197.88 490.41 196.74Q489.21 195.60 489.21 193.75Q489.21 192.53 489.76 191.62Q490.31 190.70 491.30 190.19Q492.28 189.67 493.55 189.67L497.63 189.67L497.63 188.64Q497.63 186.07 494.82 186.07Q493.58 186.07 492.81 186.53Q492.04 186.98 491.99 187.80L489.83 187.80Q489.95 186.24 491.28 185.22Q492.62 184.20 494.82 184.20Q497.22 184.20 498.51 185.35Q499.79 186.50 499.79 188.57L499.79 197.64L497.66 197.64L497.66 195.24L497.61 195.24Q497.42 196.46 496.38 197.17Q495.35 197.88 493.65 197.88M494.18 196.06Q495.76 196.06 496.70 195.29Q497.63 194.52 497.63 193.20L497.63 191.35L493.79 191.35Q492.74 191.35 492.08 191.99Q491.42 192.62 491.42 193.68Q491.42 194.78 492.15 195.42Q492.88 196.06 494.18 196.06" fill="white" fill-opacity="0.7"/>
<path d="M506.37 197.64L504.21 197.64L504.21 184.44L506.37 184.44L506.37 186.96L506.39 186.96Q506.56 185.64 507.47 184.92Q508.38 184.20 509.90 184.20Q511.89 184.20 513.06 185.42Q514.24 186.65 514.24 188.76L514.24 197.64L512.08 197.64L512.08 189.14Q512.08 187.63 511.32 186.83Q510.57 186.02 509.27 186.02Q507.93 186.02 507.15 186.86Q506.37 187.70 506.37 189.24" fill="white" fill-opacity="0.7"/>
<path d="M522.45 197.88Q520.41 197.88 519.21 196.74Q518.01 195.60 518.01 193.75Q518.01 192.53 518.56 191.62Q519.11 190.70 520.10 190.19Q521.08 189.67 522.35 189.67L526.43 189.67L526.43 188.64Q526.43 186.07 523.62 186.07Q522.38 186.07 521.61 186.53Q520.84 186.98 520.79 187.80L518.63 187.80Q518.75 186.24 520.08 185.22Q521.42 184.20 523.62 184.20Q526.02 184.20 527.31 185.35Q528.59 186.50 528.59 188.57L528.59 197.64L526.46 197.64L526.46 195.24L526.41 195.24Q526.22 196.46 525.18 197.17Q524.15 197.88 522.45 197.88M522.98 196.06Q524.56 196.06 525.50 195.29Q526.43 194.52 526.43 193.20L526.43 191.35L522.59 191.35Q521.54 191.35 520.88 191.99Q520.22 192.62 520.22 193.68Q520.22 194.78 520.95 195.42Q521.68 196.06 522.98 196.06" fill="white" fill-opacity="0.7"/>
<path d="M538.36 201.96L534.66 201.96L534.66 199.99L538.38 199.99Q539.51 199.99 540.16 199.36Q540.81 198.72 540.81 197.64L540.81 196.44L540.86 194.28L540.78 194.28Q540.59 195.46 539.66 196.09Q538.72 196.73 537.30 196.73Q535.26 196.73 534.09 195.43Q532.91 194.14 532.91 191.88L532.91 189.10Q532.91 186.84 534.09 185.52Q535.26 184.20 537.30 184.20Q538.72 184.20 539.66 184.87Q540.59 185.54 540.78 186.72L540.83 186.72L540.83 184.44L542.97 184.44L542.97 197.64Q542.97 199.63 541.73 200.80Q540.50 201.96 538.36 201.96M537.95 194.93Q539.30 194.93 540.06 194.09Q540.83 193.25 540.83 191.76L540.83 189.24Q540.83 187.75 540.06 186.91Q539.30 186.07 537.95 186.07Q536.58 186.07 535.83 186.86Q535.07 187.66 535.07 189L535.07 192Q535.07 193.34 535.83 194.14Q536.58 194.93 537.95 194.93" fill="white" fill-opacity="0.7"/>
<path d="M552.40 197.88Q550.07 197.88 548.64 196.48Q547.22 195.07 547.22 192.60L547.22 189.48Q547.22 187.01 548.64 185.60Q550.07 184.20 552.40 184.20Q553.96 184.20 555.12 184.82Q556.29 185.45 556.94 186.58Q557.58 187.70 557.58 189.24L557.58 191.59L549.33 191.59L549.33 192.84Q549.33 194.30 550.17 195.16Q551.01 196.01 552.40 196.01Q553.60 196.01 554.38 195.54Q555.16 195.07 555.33 194.28L557.49 194.28Q557.27 195.94 555.88 196.91Q554.49 197.88 552.40 197.88M549.33 189.24L549.33 189.91L555.47 189.91L555.47 189.24Q555.47 187.68 554.67 186.83Q553.86 185.98 552.40 185.98Q550.94 185.98 550.13 186.83Q549.33 187.68 549.33 189.24" fill="white" fill-opacity="0.7"/>
<path d="M581.30 197.88Q578.90 197.88 577.50 196.54Q576.11 195.19 576.11 192.84L576.11 184.92Q576.11 182.57 577.50 181.22Q578.90 179.88 581.30 179.88Q583.65 179.88 585.04 181.24Q586.43 182.59 586.43 184.92L584.27 184.92Q584.27 183.43 583.49 182.63Q582.71 181.82 581.30 181.82Q579.88 181.82 579.08 182.62Q578.27 183.41 578.27 184.90L578.27 192.84Q578.27 194.33 579.08 195.14Q579.88 195.96 581.30 195.96Q582.71 195.96 583.49 195.14Q584.27 194.33 584.27 192.84L584.27 190.44L580.72 190.44L580.72 188.47L586.43 188.47L586.43 192.84Q586.43 195.17 585.04 196.52Q583.65 197.88 581.30 197.88" fill="white" fill-opacity="0.7"/>
<path d="M595.60 197.83Q593.22 197.83 591.82 196.44Q590.42 195.05 590.42 192.55L590.42 189.53Q590.42 187.01 591.81 185.63Q593.20 184.25 595.60 184.25Q598 184.25 599.39 185.63Q600.78 187.01 600.78 189.53L600.78 192.55Q600.78 195.05 599.38 196.44Q597.98 197.83 595.60 197.83M595.60 195.91Q597.02 195.91 597.82 195.12Q598.62 194.33 598.62 192.79L598.62 189.29Q598.62 187.75 597.82 186.96Q597.02 186.17 595.60 186.17Q594.21 186.17 593.39 186.96Q592.58 187.75 592.58 189.29L592.58 192.79Q592.58 194.33 593.39 195.12Q594.21 195.91 595.60 195.91" fill="white" fill-opacity="0.7"/>
<path d="M610 197.83Q607.62 197.83 606.22 196.44Q604.82 195.05 604.82 192.55L604.82 189.53Q604.82 187.01 606.21 185.63Q607.60 184.25 610 184.25Q612.40 184.25 613.79 185.63Q615.18 187.01 615.18 189.53L615.18 192.55Q615.18 195.05 613.78 196.44Q612.38 197.83 610 197.83M610 195.91Q611.42 195.91 612.22 195.12Q613.02 194.33 613.02 192.79L613.02 189.29Q613.02 187.75 612.22 186.96Q611.42 186.17 610 186.17Q608.61 186.17 607.79 186.96Q606.98 187.75 606.98 189.29L606.98 192.79Q606.98 194.33 607.79 195.12Q608.61 195.91 610 195.91" fill="white" fill-opacity="0.7"/>
<path d="M624.76 201.96L621.06 201.96L621.06 199.99L624.78 199.99Q625.91 199.99 626.56 199.36Q627.21 198.72 627.21 197.64L627.21 196.44L627.26 194.28L627.18 194.28Q626.99 195.46 626.06 196.09Q625.12 196.73 623.70 196.73Q621.66 196.73 620.49 195.43Q619.31 194.14 619.31 191.88L619.31 189.10Q619.31 186.84 620.49 185.52Q621.66 184.20 623.70 184.20Q625.12 184.20 626.06 184.87Q626.99 185.54 627.18 186.72L627.23 186.72L627.23 184.44L629.37 184.44L629.37 197.64Q629.37 199.63 628.13 200.80Q626.90 201.96 624.76 201.96M624.35 194.93Q625.70 194.93 626.46 194.09Q627.23 193.25 627.23 191.76L627.23 189.24Q627.23 187.75 626.46 186.91Q625.70 186.07 624.35 186.07Q622.98 186.07 622.23 186.86Q621.47 187.66 621.47 189L621.47 192Q621.47 193.34 622.23 194.14Q622.98 194.93 624.35 194.93" fill="white" fill-opacity="0.7"/>
<path d="M644.80 197.64L640.72 197.64Q638.97 197.64 637.92 196.62Q636.88 195.60 636.88 193.92L636.88 182.09L632.32 182.09L632.32 180.12L639.04 180.12L639.04 193.92Q639.04 194.74 639.50 195.20Q639.95 195.67 640.72 195.67L644.80 195.67" fill="white" fill-opacity="0.7"/>
<path d="M653.20 197.88Q650.87 197.88 649.44 196.48Q648.02 195.07 648.02 192.60L648.02 189.48Q648.02 187.01 649.44 185.60Q650.87 184.20 653.20 184.20Q654.76 184.20 655.92 184.82Q657.09 185.45 657.74 186.58Q658.38 187.70 658.38 189.24L658.38 191.59L650.13 191.59L650.13 192.84Q650.13 194.30 650.97 195.16Q651.81 196.01 653.20 196.01Q654.40 196.01 655.18 195.54Q655.96 195.07 656.13 194.28L658.29 194.28Q658.07 195.94 656.68 196.91Q655.29 197.88 653.20 197.88M650.13 189.24L650.13 189.91L656.27 189.91L656.27 189.24Q656.27 187.68 655.47 186.83Q654.66 185.98 653.20 185.98Q651.74 185.98 650.93 186.83Q650.13 187.68 650.13 189.24" fill="white" fill-opacity="0.7"/>
<path d="M680.08 197.64L677.37 197.64L675.28 180.12L677.27 180.12L678.64 193.08Q678.74 193.87 678.78 194.72Q678.83 195.58 678.86 196.08Q678.90 195.58 678.99 194.72Q679.07 193.87 679.17 193.08L680.90 180.12L683.22 180.12L684.81 193.08Q684.90 193.87 685 194.72Q685.10 195.58 685.14 196.08Q685.19 195.58 685.25 194.72Q685.31 193.87 685.41 193.08L686.82 180.12L688.72 180.12L686.58 197.64L683.87 197.64L682.29 184.44Q682.19 183.62 682.14 182.84Q682.10 182.06 682.05 181.63Q682 182.06 681.95 182.84Q681.90 183.62 681.78 184.44" fill="white" fill-opacity="0.7"/>
<path d="M695.25 197.88Q693.21 197.88 692.01 196.74Q690.81 195.60 690.81 193.75Q690.81 192.53 691.36 191.62Q691.91 190.70 692.90 190.19Q693.88 189.67 695.15 189.67L699.23 189.67L699.23 188.64Q699.23 186.07 696.42 186.07Q695.18 186.07 694.41 186.53Q693.64 186.98 693.59 187.80L691.43 187.80Q691.55 186.24 692.88 185.22Q694.22 184.20 696.42 184.20Q698.82 184.20 700.11 185.35Q701.39 186.50 701.39 188.57L701.39 197.64L699.26 197.64L699.26 195.24L699.21 195.24Q699.02 196.46 697.98 197.17Q696.95 197.88 695.25 197.88M695.78 196.06Q697.36 196.06 698.30 195.29Q699.23 194.52 699.23 193.20L699.23 191.35L695.39 191.35Q694.34 191.35 693.68 191.99Q693.02 192.62 693.02 193.68Q693.02 194.78 693.75 195.42Q694.48 196.06 695.78 196.06" fill="white" fill-opacity="0.7"/>
<path d="M716.80 197.64L712.72 197.64Q710.97 197.64 709.92 196.62Q708.88 195.60 708.88 193.92L708.88 182.09L704.32 182.09L704.32 180.12L711.04 180.12L711.04 193.92Q711.04 194.74 711.50 195.20Q711.95 195.67 712.72 195.67L716.80 195.67" fill="white" fill-opacity="0.7"/>
<path d="M731.20 197.64L727.12 197.64Q725.37 197.64 724.32 196.62Q723.28 195.60 723.28 193.92L723.28 182.09L718.72 182.09L718.72 180.12L725.44 180.12L725.44 193.92Q725.44 194.74 725.90 195.20Q726.35 195.67 727.12 195.67L731.20 195.67" fill="white" fill-opacity="0.7"/>
<path d="M739.60 197.88Q737.27 197.88 735.84 196.48Q734.42 195.07 734.42 192.60L734.42 189.48Q734.42 187.01 735.84 185.60Q737.27 184.20 739.60 184.20Q741.16 184.20 742.32 184.82Q743.49 185.45 744.14 186.58Q744.78 187.70 744.78 189.24L744.78 191.59L736.53 191.59L736.53 192.84Q736.53 194.30 737.37 195.16Q738.21 196.01 739.60 196.01Q740.80 196.01 741.58 195.54Q742.36 195.07 742.53 194.28L744.69 194.28Q744.47 195.94 743.08 196.91Q741.69 197.88 739.60 197.88M736.53 189.24L736.53 189.91L742.67 189.91L742.67 189.24Q742.67 187.68 741.87 186.83Q741.06 185.98 739.60 185.98Q738.14 185.98 737.33 186.83Q736.53 187.68 736.53 189.24" fill="white" fill-opacity="0.7"/>
<path d="M759.16 197.64L755.32 197.64Q753.69 197.64 752.70 196.69Q751.72 195.74 751.72 194.16L751.72 186.41L747.93 186.41L747.93 184.44L751.72 184.44L751.72 180.72L753.88 180.72L753.88 184.44L759.28 184.44L759.28 186.41L753.88 186.41L753.88 194.16Q753.88 194.83 754.28 195.25Q754.67 195.67 755.32 195.67L759.16 195.67" fill="white" fill-opacity="0.7"/>
<path d="M782.80 197.88Q780.45 197.88 779.08 196.51Q777.71 195.14 777.71 192.60L777.71 185.16Q777.71 182.62 779.08 181.25Q780.45 179.88 782.80 179.88Q785.15 179.88 786.52 181.25Q787.89 182.62 787.89 185.14L787.89 192.60Q787.89 195.14 786.52 196.51Q785.15 197.88 782.80 197.88M782.80 195.94Q784.22 195.94 784.97 195.13Q785.73 194.33 785.73 192.84L785.73 184.92Q785.73 183.43 784.97 182.63Q784.22 181.82 782.80 181.82Q781.41 181.82 780.64 182.63Q779.87 183.43 779.87 184.92L779.87 192.84Q779.87 194.33 780.64 195.13Q781.41 195.94 782.80 195.94" fill="white" fill-opacity="0.7"/>
<path d="M797.97 197.88Q796.48 197.88 795.52 197.15Q794.56 196.42 794.39 195.12L794.37 195.12L794.37 197.64L792.21 197.64L792.21 180.12L794.37 180.12L794.37 183.96L794.32 186.96L794.34 186.96Q794.54 185.69 795.51 184.94Q796.48 184.20 797.97 184.20Q799.96 184.20 801.14 185.52Q802.31 186.84 802.31 189.12L802.31 192.98Q802.31 195.24 801.14 196.56Q799.96 197.88 797.97 197.88M797.25 196.01Q798.62 196.01 799.38 195.29Q800.15 194.57 800.15 192.96L800.15 189.12Q800.15 187.49 799.38 186.78Q798.62 186.07 797.25 186.07Q795.93 186.07 795.15 186.91Q794.37 187.75 794.37 189.24L794.37 192.84Q794.37 194.33 795.15 195.17Q795.93 196.01 797.25 196.01" fill="white" fill-opacity="0.7"/>
<path d="M809.54 201.96L806.56 201.96L806.56 199.99L809.54 199.99Q811.02 199.99 811.85 199.18Q812.68 198.36 812.68 196.90L812.68 186.41L806.44 186.41L806.44 184.44L814.84 184.44L814.84 196.90Q814.84 199.22 813.40 200.59Q811.96 201.96 809.54 201.96M813.52 182.06Q812.73 182.06 812.27 181.66Q811.82 181.25 811.82 180.55Q811.82 179.83 812.27 179.41Q812.73 178.99 813.52 178.99Q814.31 178.99 814.77 179.41Q815.22 179.83 815.22 180.55Q815.22 181.25 814.77 181.66Q814.31 182.06 813.52 182.06" fill="white" fill-opacity="0.7"/>
<path d="M826 197.88Q823.67 197.88 822.24 196.48Q820.82 195.07 820.82 192.60L820.82 189.48Q820.82 187.01 822.24 185.60Q823.67 184.20 826 184.20Q827.56 184.20 828.72 184.82Q829.89 185.45 830.54 186.58Q831.18 187.70 831.18 189.24L831.18 191.59L822.93 191.59L822.93 192.84Q822.93 194.30 823.77 195.16Q824.61 196.01 826 196.01Q827.20 196.01 827.98 195.54Q828.76 195.07 828.93 194.28L831.09 194.28Q830.87 195.94 829.48 196.91Q828.09 197.88 826 197.88M822.93 189.24L822.93 189.91L829.07 189.91L829.07 189.24Q829.07 187.68 828.27 186.83Q827.46 185.98 826 185.98Q824.54 185.98 823.73 186.83Q822.93 187.68 822.93 189.24" fill="white" fill-opacity="0.7"/>
<path d="M840.59 197.88Q838.19 197.88 836.75 196.54Q835.31 195.19 835.31 192.84L835.31 189.24Q835.31 186.89 836.75 185.54Q838.19 184.20 840.59 184.20Q842.87 184.20 844.28 185.42Q845.68 186.65 845.75 188.76L843.59 188.76Q843.52 187.49 842.73 186.80Q841.94 186.12 840.59 186.12Q839.18 186.12 838.32 186.92Q837.47 187.73 837.47 189.22L837.47 192.84Q837.47 194.33 838.32 195.14Q839.18 195.96 840.59 195.96Q841.94 195.96 842.73 195.26Q843.52 194.57 843.59 193.32L845.75 193.32Q845.68 195.43 844.28 196.66Q842.87 197.88 840.59 197.88" fill="white" fill-opacity="0.7"/>
<path d="M859.96 197.64L856.12 197.64Q854.49 197.64 853.50 196.69Q852.52 195.74 852.52 194.16L852.52 186.41L848.73 186.41L848.73 184.44L852.52 184.44L852.52 180.72L854.68 180.72L854.68 184.44L860.08 184.44L860.08 186.41L854.68 186.41L854.68 194.16Q854.68 194.83 855.08 195.25Q855.47 195.67 856.12 195.67L859.96 195.67" fill="white" fill-opacity="0.7"/>
<path d="M869.73 197.83L868.67 197.83Q866.46 197.83 865.25 196.84Q864.04 195.84 864.04 194.02L866.20 194.02Q866.20 194.93 866.85 195.44Q867.50 195.96 868.67 195.96L869.73 195.96Q870.93 195.96 871.59 195.43Q872.25 194.90 872.25 193.94Q872.25 192.24 870.69 192.02L867.04 191.50Q865.70 191.30 864.95 190.38Q864.21 189.46 864.21 187.94Q864.21 186.22 865.40 185.23Q866.58 184.25 868.67 184.25L869.73 184.25Q871.65 184.25 872.86 185.20Q874.07 186.14 874.17 187.68L871.98 187.68Q871.94 186.98 871.32 186.53Q870.71 186.07 869.73 186.07L868.67 186.07Q867.57 186.07 866.94 186.58Q866.32 187.08 866.32 187.94Q866.32 189.34 867.59 189.53L871 190.01Q874.36 190.49 874.36 193.94Q874.36 195.79 873.15 196.81Q871.94 197.83 869.73 197.83" fill="white" fill-opacity="0.7"/>
<path d="M83.31 136.06L71.89 136.06L63.82 65.98L72.27 65.98L77.46 117.05Q77.74 120.12 77.98 123.63Q78.22 127.13 78.32 129.34Q78.51 127.13 78.80 123.63Q79.09 120.12 79.57 117.05L86.29 65.98L95.79 65.98L102.03 117.05Q102.32 120.12 102.70 123.63Q103.09 127.13 103.38 129.34Q103.47 127.13 103.76 123.63Q104.05 120.12 104.34 117.05L109.62 65.98L117.87 65.98L109.52 136.06L98 136.06L91.95 84.22Q91.57 81.05 91.33 77.74Q91.09 74.43 90.99 72.41Q90.70 74.43 90.51 77.74Q90.32 81.05 89.94 84.22L83.31 136.06M133.71 136.06L124.02 136.06L142.16 65.98L154.74 65.98L172.78 136.06L163.09 136.06L158.67 117.82L138.13 117.82L133.71 136.06M145.14 88.92L140.05 109.95L156.75 109.95L151.76 89.02Q150.32 83.26 149.46 79.23Q148.59 75.20 148.40 73.76Q148.21 75.20 147.34 79.23Q146.48 83.26 145.14 88.92M230.19 136.06L189.49 136.06L189.49 65.98L198.99 65.98L198.99 127.42L230.19 127.42L230.19 136.06M287.79 136.06L247.09 136.06L247.09 65.98L256.59 65.98L256.59 127.42L287.79 127.42L287.79 136.06M342.51 136.06L301.71 136.06L301.71 65.98L342.51 65.98L342.51 74.52L311.12 74.52L311.12 95.36L339.15 95.36L339.15 103.61L311.12 103.61L311.12 127.52L342.51 127.52L342.51 136.06M383.60 136.06L374.10 136.06L374.10 74.62L355.09 74.62L355.09 65.98L402.51 65.98L402.51 74.62L383.60 74.62L383.60 136.06M436.40 137.02Q426.80 137.02 421.23 131.45Q415.66 125.88 415.66 115.71L415.66 86.24Q415.66 76.16 421.23 70.59Q426.80 65.02 436.40 65.02Q446 65.02 451.57 70.54Q457.14 76.06 457.14 86.24L457.14 115.71Q457.14 125.88 451.57 131.45Q446 137.02 436.40 137.02M436.40 128.57Q441.78 128.57 444.70 125.50Q447.63 122.43 447.63 116.67L447.63 85.28Q447.63 79.61 444.75 76.54Q441.87 73.47 436.40 73.47Q430.93 73.47 428.05 76.54Q425.17 79.61 425.17 85.28L425.17 116.67Q425.17 122.43 428.10 125.50Q431.02 128.57 436.40 128.57M495.34 136.06L473.74 136.06L473.74 65.98LNaN 65.98Q503.70 65.98 509.31 70.83Q514.93 75.68 514.93 84.12Q514.93 89.60 511.52 93.87Q508.11 98.14 502.74 99.10L502.74 99.39Q506.77 99.87 509.89 102.27Q513.01 104.67 514.78 108.36Q516.56 112.06 516.56 116.48Q516.56 125.50 510.85 130.78Q505.14 136.06 495.34 136.06M483.06 74.33L483.06 95.55L493.90 95.55Q499.28 95.55 502.35 92.72Q505.42 89.88 505.42 84.99Q505.42 80 502.35 77.16Q499.28 74.33 NaN 74.33L483.06 74.33M483.06 103.61L483.06 127.71L494.48 127.71Q500.34 127.71 503.70 124.59Q507.06 121.47 507.06 116.09Q507.06 110.52 503.70 107.07Q500.34 103.61 494.48 103.61L483.06 103.61M548.72 137.02Q538.45 137.02 532.59 131.31Q526.74 125.60 526.74 115.71L536.24 115.71Q536.24 121.85 539.55 125.21Q542.86 128.57 548.72 128.57Q554.58 128.57 557.89 125.21Q561.20 121.85 561.20 115.80L561.20 65.98L570.70 65.98L570.70 115.80Q570.70 125.60 564.80 131.31Q558.90 137.02 548.72 137.02M630.51 136.06L589.71 136.06L589.71 65.98L630.51 65.98L630.51 74.52L599.12 74.52L599.12 95.36L627.15 95.36L627.15 103.61L599.12 103.61L599.12 127.52L630.51 127.52L630.51 136.06M667.57 137.02Q657.87 137.02 652.16 131.60Q646.45 126.17 646.45 116.67L646.45 85.28Q646.45 75.87 652.16 70.44Q657.87 65.02 667.57 65.02Q677.17 65.02 682.88 70.49Q688.59 75.96 688.59 85.28L679.09 85.28Q679.09 79.61 676.02 76.54Q672.94 73.47 667.57 73.47Q662.10 73.47 659.02 76.54Q655.95 79.61 655.95 85.28L655.95 116.67Q655.95 122.43 659.02 125.50Q662.10 128.57 667.57 128.57Q672.94 128.57 676.02 125.50Q679.09 122.43 679.09 116.67L688.59 116.67Q688.59 126.08 682.88 131.55Q677.17 137.02 667.57 137.02M729.20 136.06L719.70 136.06L719.70 74.62L700.69 74.62L700.69 65.98L748.11 65.98L748.11 74.62L729.20 74.62L729.20 136.06M782.38 137.02Q772.02 137.02 765.87 131.60Q759.73 126.17 759.73 116.67L769.23 116.67Q769.23 122.24 772.78 125.40Q776.34 128.57 782.38 128.57Q788.14 128.57 791.55 125.36Q794.96 122.14 794.96 116.76Q794.96 112.73 792.75 109.71Q790.54 106.68 786.51 105.63L776.14 102.84Q769.33 100.92 765.34 95.88Q761.36 90.84 761.36 83.93Q761.36 78.27 763.90 74Q766.45 69.72 771.06 67.37Q775.66 65.02 781.71 65.02Q787.86 65.02 792.51 67.37Q797.17 69.72 799.76 73.95Q802.35 78.17 802.35 83.74L792.94 83.74Q792.94 79.13 789.82 76.25Q786.70 73.37 781.71 73.37Q776.72 73.37 773.70 76.25Q770.67 79.13 770.67 83.74Q770.67 87.48 772.69 90.03Q774.70 92.57 778.35 93.63L789.01 96.51Q796.21 98.43 800.24 103.85Q804.27 109.28 804.27 116.76Q804.27 122.91 801.58 127.47Q798.90 132.03 793.95 134.52Q789.01 137.02 782.38 137.02M886.35 136.06L876.85 136.06L876.85 65.98L899.60 65.98Q906.32 65.98 911.22 68.57Q916.11 71.16 918.80 75.82Q921.49 80.48 921.49 86.91Q921.49 93.24 918.80 97.90Q916.11 102.56 911.17 105.15Q906.22 107.74 899.60 107.74L886.35 107.74L886.35 136.06M886.35 74.43L886.35 99.29L899.60 99.29Q905.17 99.29 908.43 95.88Q911.70 92.48 911.70 86.91Q911.70 81.24 908.43 77.84Q905.17 74.43 899.60 74.43L886.35 74.43M940.11 136.06L930.42 136.06L948.56 65.98L961.14 65.98L979.18 136.06L969.49 136.06L965.07 117.82L944.53 117.82L940.11 136.06M951.54 88.92L946.45 109.95L963.15 109.95L958.16 89.02Q956.72 83.26 955.86 79.23Q954.99 75.20 954.80 73.76Q954.61 75.20 953.74 79.23Q952.88 83.26 951.54 88.92M1017.20 136.06L1007.70 136.06L1007.70 110.04L986.67 65.98L996.75 65.98L1009.71 93.63Q1010.86 96.12 1011.58 98.14Q1012.30 100.16 1012.50 101.02Q1012.78 100.16 1013.50 98.14Q1014.22 96.12 1015.47 93.63L1028.34 65.98L1038.13 65.98L1017.20 110.04L1017.20 136.06M1116.75 136.06L1107.25 136.06L1107.25 65.98LNaN 65.98Q1136.72 65.98 1141.62 68.57Q1146.51 71.16 1149.20 75.82Q1151.89 80.48 1151.89 86.91Q1151.89 93.24 1149.20 97.90Q1146.51 102.56 1141.57 105.15Q1136.62 107.74 NaN 107.74L1116.75 107.74L1116.75 136.06M1116.75 74.43L1116.75 99.29LNaN 99.29Q1135.57 99.29 1138.83 95.88Q1142.10 92.48 1142.10 86.91Q1142.10 81.24 1138.83 77.84Q1135.57 74.43 NaN 74.43L1116.75 74.43M1170.51 136.06L1160.82 136.06L1178.96 65.98L1191.54 65.98L1209.58 136.06L1199.89 136.06L1195.47 117.82L1174.93 117.82L1170.51 136.06M1181.94 88.92L1176.85 109.95L1193.55 109.95L1188.56 89.02Q1187.12 83.26 1186.26 79.23Q1185.39 75.20 1185.20 73.76Q1185.01 75.20 1184.14 79.23Q1183.28 83.26 1181.94 88.92M1243.18 137.02Q1232.82 137.02 1226.67 131.60Q1220.53 126.17 1220.53 116.67L1230.03 116.67Q1230.03 122.24 1233.58 125.40Q1237.14 128.57 1243.18 128.57Q1248.94 128.57 1252.35 125.36Q1255.76 122.14 1255.76 116.76Q1255.76 112.73 1253.55 109.71Q1251.34 106.68 1247.31 105.63L1236.94 102.84Q1230.13 100.92 1226.14 95.88Q1222.16 90.84 1222.16 83.93Q1222.16 78.27 1224.70 74Q1227.25 69.72 1231.86 67.37Q1236.46 65.02 1242.51 65.02Q1248.66 65.02 1253.31 67.37Q1257.97 69.72 1260.56 73.95Q1263.15 78.17 1263.15 83.74L1253.74 83.74Q1253.74 79.13 1250.62 76.25Q1247.50 73.37 1242.51 73.37Q1237.52 73.37 1234.50 76.25Q1231.47 79.13 1231.47 83.74Q1231.47 87.48 1233.49 90.03Q1235.50 92.57 1239.15 93.63L1249.81 96.51Q1257.01 98.43 1261.04 103.85Q1265.07 109.28 1265.07 116.76Q1265.07 122.91 1262.38 127.47Q1259.70 132.03 1254.75 134.52Q1249.81 137.02 1243.18 137.02M1300.78 137.02Q1290.42 137.02 1284.27 131.60Q1278.13 126.17 1278.13 116.67L1287.63 116.67Q1287.63 122.24 1291.18 125.40Q1294.74 128.57 1300.78 128.57Q1306.54 128.57 1309.95 125.36Q1313.36 122.14 1313.36 116.76Q1313.36 112.73 1311.15 109.71Q1308.94 106.68 1304.91 105.63L1294.54 102.84Q1287.73 100.92 1283.74 95.88Q1279.76 90.84 1279.76 83.93Q1279.76 78.27 1282.30 74Q1284.85 69.72 1289.46 67.37Q1294.06 65.02 1300.11 65.02Q1306.26 65.02 1310.91 67.37Q1315.57 69.72 1318.16 73.95Q1320.75 78.17 1320.75 83.74L1311.34 83.74Q1311.34 79.13 1308.22 76.25Q1305.10 73.37 1300.11 73.37Q1295.12 73.37 1292.10 76.25Q1289.07 79.13 1289.07 83.74Q1289.07 87.48 1291.09 90.03Q1293.10 92.57 1296.75 93.63L1307.41 96.51Q1314.61 98.43 1318.64 103.85Q1322.67 109.28 1322.67 116.76Q1322.67 122.91 1319.98 127.47Q1317.30 132.03 1312.35 134.52Q1307.41 137.02 1300.78 137.02M1379.31 136.06L1338.51 136.06L1338.51 65.98L1379.31 65.98L1379.31 74.52L1347.92 74.52L1347.92 95.36L1375.95 95.36L1375.95 103.61L1347.92 103.61L1347.92 127.52L1379.31 127.52L1379.31 136.06M1415.98 137.02Q1405.62 137.02 1399.47 131.60Q1393.33 126.17 1393.33 116.67L1402.83 116.67Q1402.83 122.24 1406.38 125.40Q1409.94 128.57 1415.98 128.57Q1421.74 128.57 1425.15 125.36Q1428.56 122.14 1428.56 116.76Q1428.56 112.73 1426.35 109.71Q1424.14 106.68 1420.11 105.63L1409.74 102.84Q1402.93 100.92 1398.94 95.88Q1394.96 90.84 1394.96 83.93Q1394.96 78.27 1397.50 74Q1400.05 69.72 1404.66 67.37Q1409.26 65.02 1415.31 65.02Q1421.46 65.02 1426.11 67.37Q1430.77 69.72 1433.36 73.95Q1435.95 78.17 1435.95 83.74L1426.54 83.74Q1426.54 79.13 1423.42 76.25Q1420.30 73.37 1415.31 73.37Q1410.32 73.37 1407.30 76.25Q1404.27 79.13 1404.27 83.74Q1404.27 87.48 1406.29 90.03Q1408.30 92.57 1411.95 93.63L1422.61 96.51Q1429.81 98.43 1433.84 103.85Q1437.87 109.28 1437.87 116.76Q1437.87 122.91 1435.18 127.47Q1432.50 132.03 1427.55 134.52Q1422.61 137.02 1415.98 137.02" fill="url(#paint2_linear_0_1)"/>
<g id="Group 1">
<rect id="Rectangle 1" x="26" y="168" width="12" height="184" rx="5" fill="url(#paint3_linear_0_1)" fill-opacity="0.9"/>
</g>
<g id="Group 1_2">
<rect id="Rectangle 2" x="26" y="38" width="12" height="119" rx="5" fill="url(#paint4_linear_0_1)" fill-opacity="0.9"/>
</g>
<ellipse id="Ellipse 1" cx="148.5" cy="573" rx="215.5" ry="214" fill="url(#paint5_linear_0_1)" fill-opacity="0.4"/>
<rect id="Rectangle 3" x="1229" y="48" width="300" height="300" rx="25" fill="#FFFBFB" fill-opacity="0.9"/>
<g id="placeholder-logo"><g transform="translate(1229,48) translate(0.0,60.0) scale(1.2000)"><g fill="#666666">
  <path d="m88.05,27.65c-3.15,4 -3.2,51.2 -0.05,54.35c2.75,2.75 71.7,3.15 74.45,0.45c2.85,-2.9 2.3,-53.85 -0.65,-55.9c-1.95,-1.35 -7.15,-1.55 -36.95,-1.55l-34.7,0l-2.1,2.65zm69.45,3.35c0.65,0 1,8.6 1,23.75l0,23.75l-33,0l-33,0l-0.25,-23c-0.15,-12.6 -0.1,-23.45 0.15,-24.1c0.35,-0.85 8.9,-1.05 32.25,-0.75c17.55,0.2 32.3,0.35 32.85,0.35z"/>
  <path d="m99.15,37.3c-6.85,7.35 4.25,17.35 11.4,10.25c1.35,-1.35 2.45,-3.65 2.45,-5.05c0,-6.45 -9.35,-9.95 -13.85,-5.2z"/>
  <path d="m135,42.5c-0.7,0.85 -5.25,5.15 -10.1,9.6l-8.85,8.1l-3.2,-3.2l-3.15,-3.15l-6.35,6.3c-5.55,5.5 -6.35,6.75 -6.35,10.05l0,3.8l28.5,0l28.5,0l0,-8.6l0,-8.55l-8.15,-7.7c-9.35,-8.85 -9.15,-8.7 -10.85,-6.65zm7.25,15.2c0.95,0.9 1.75,2.9 1.75,4.45c6.35,-5.05 4.75,-7.15 4.9,-11.55c0.95,0 0,0 0,0l-6.65,7.1z"/>
  <path d="m53.65,110.75c0.1,4.8 0.45,8.65 0.75,8.5c0.35,-0.15 1.3,-0.25 2.1,-0.25c1.1,0 1.5,-1.2 1.5,-4.75l0,-4.75l3.25,5c4.9,7.5 6.2,6.75 6.55,-3.75c0.25,-8.15 0.15,-8.75 -1.7,-8.75c-1.65,0 -2.05,0.8 -2.3,4.75l-0.3,4.75l-2.8,-4.75c-4.85,-8.25 -7.25,-6.9 -7.05,4z"/>
  <path d="m91,108.9c0,9.65 0.3,10.1 6.1,10.1c5.8,0 7.15,-2.65 1.65,-3.2l-3.25,-0.3l-0.3,-6.75c-0.25,-5.95 -0.55,-6.75 -2.25,-6.75c-1.75,0 -1.95,0.7 -1.95,6.9z"/>
  <path d="m151,102.45c0,0.25 1,2.15 2.25,4.2c1.2,2.1 2.45,5.8 2.75,8.25c0.65,5.9 4,6.95 4,1.25c0.05,-2.1 1.25,-5.85 2.95,-8.9l2.9,-5.25l-2.5,0c-1.8,0 -2.8,0.85 -3.75,3.1l-1.3,3.05l-1.25,-3.05c-1.1,-2.6 -6.05,-4.8 -6.05,-2.65z"/>
  <path d="m191,107.45c0,9.05 3.4,8.85 4.25,-0.2c0.45,-5 0.35,-5.25 -1.9,-5.25c-2.2,0 -2.35,0.4 -2.35,5.45z"/>
  <path d="m180.8,104.75c-1.3,5.35 0.65,13.6 3.45,14.35c2.3,0.6 2.75,0.4 2.75,-1.2c0,-1.05 -0.45,-1.9 -1,-1.9c-0.55,0 -1,-1.6 -1,-3.5c0,-1.95 0.45,-3.5 1,-3.5c0.55,0 1,-0.7 1,-1.5c0,-0.85 -0.45,-1.5 -1,-1.5c-0.55,0 -1,-0.7 -1,-1.5c0,-2.1 -3.65,-1.9 -4.2,0.25z"/>
  <path d="m71.55,106.55c-2.2,2.25 -2.05,9.7 0.3,11.8c4.5,4.1 10.15,0.75 10.15,-6.1c0,-4.85 -2,-7.25 -6,-7.25c-1.55,0 -3.55,0.7 -4.45,1.55zm6.25,5.8c0.25,3.05 0,3.65 -1.6,3.65c-2.3,0 -3.25,-2.65 -2.05,-5.85c1.25,-3.35 3.3,-2.1 3.65,2.2z"/>
  <path d="m105.75,106.1c-2.5,1.45 -2.45,9.95 0.1,12.25c4.3,3.9 10.15,0.35 10.15,-6.2c0,-6 -5.15,-9.05 -10.25,-6.05zm6.05,6.25c0.25,3.05 0,3.65 -1.6,3.65c-2.3,0 -3.25,-2.65 -2.05,-5.85c1.25,-3.35 3.3,-2.1 3.65,2.2z"/>
  <path d="m119.2,106.2c-3.8,3.8 -0.4,12.55 4.4,11.35c1.9,-0.45 2.45,-0.3 2.15,0.65c-0.25,0.7 -1.55,1.2 -2.85,1.1c-4.05,-0.3 -5.35,0.45 -3.85,2.25c0.85,1.05 2.6,1.45 5.35,1.25l4.1,-0.3l0.3,-8.75l0.3,-8.75l-4.35,0c-2.4,0 -4.9,0.55 -5.55,1.2zm6.6,4.45c0.4,2.85 -2.15,4.85 -3.75,2.95c-0.9,-1.1 -0.9,-2 -0.05,-3.6c1.35,-2.5 3.4,-2.15 3.8,0.65z"/>
  <path d="m133.55,106.55c-2.2,2.25 -2.05,9.7 0.3,11.8c4.5,4.1 10.15,0.75 10.15,-6.1c0,-4.85 -2,-7.25 -6,-7.25c-1.55,0 -3.55,0.7 -4.45,1.55zm6.25,5.8c0.25,3.05 0,3.65 -1.6,3.65c-2.3,0 -3.25,-2.65 -2.05,-5.85c1.25,-3.35 3.3,-2.1 3.65,2.2z"/>
  <path d="m167.65,106.85c-3.9,4.3 -0.75,13.15 4.7,13.15c2.4,0 5.65,-2.75 5.65,-4.85c0,-1.4 -2.65,-1.55 -3.5,-0.15c-0.95,1.55 -4.5,1.15 -4.5,-0.5c0,-1.1 1.1,-1.5 4,-1.5c3.15,0 4,-0.35 4,-1.8c0,-5.3 -6.85,-8.25 -10.35,-4.35z"/>
  <path d="m191,117.5c0,2.15 0.4,2.6 2.25,2.3c1.5,-0.2 2.25,-1 2.25,-2.3c0,-1.3 -0.75,-2.1 -2.25,-2.3c-1.85,-0.3 -2.25,0.15 -2.25,2.3z"/>
 </g></g></g>
</g>
<defs>
<linearGradient id="paint0_linear_0_1" x1="0" y1="198" x2="1584" y2="198" gradientUnits="userSpaceOnUse">
<stop stop-color="#3D052C"/>
<stop offset="1"/>
</linearGradient>
<linearGradient id="paint1_linear_0_1" x1="323" y1="-224" x2="323" y2="352" gradientUnits="userSpaceOnUse">
<stop stop-color="#28F6F2" stop-opacity="0.4"/>
<stop offset="1" stop-color="#17908E" stop-opacity="0.7"/>
</linearGradient>
<linearGradient id="paint2_linear_0_1" x1="148.5" y1="38" x2="148.5" y2="140" gradientUnits="userSpaceOnUse">
<stop stop-color="white"/>
<stop offset="1" stop-color="#999999"/>
</linearGradient>
<linearGradient id="paint3_linear_0_1" x1="38" y1="260" x2="26" y2="260" gradientUnits="userSpaceOnUse">
<stop stop-color="#D9D9D9"/>
<stop offset="1" stop-color="#737373"/>
</linearGradient>
<linearGradient id="paint4_linear_0_1" x1="38" y1="97.5" x2="26" y2="97.5" gradientUnits="userSpaceOnUse">
<stop stop-color="#D9D9D9"/>
<stop offset="1" stop-color="#737373"/>
</linearGradient>
<linearGradient id="paint5_linear_0_1" x1="27.5" y1="434.5" x2="148.5" y2="787" gradientUnits="userSpaceOnUse">
<stop stop-color="#2E21BC"/>
<stop offset="1" stop-color="#150F56"/>
</linearGradient>
<clipPath id="clip0_0_1">
<rect width="1584" height="396" fill="white"/>
</clipPath>
</defs>
</svg>
